<svg width="54" height="50" viewBox="0 0 54 50" fill="none" xmlns="http://www.w3.org/2000/svg">
<g clip-path="url(#clip0_3_43)">
<path d="M0.447632 2.66663H8.117L18.7178 23.6666L14.5822 30.4306C13.9214 31.5116 14.7114 32.889 15.9918 32.889H44.4331" stroke="black" stroke-linecap="round"/>
<path fill-rule="evenodd" clip-rule="evenodd" d="M21.7637 42.5833C21.7637 44.6545 20.0596 46.3333 17.9573 46.3333C15.8549 46.3333 14.1508 44.6545 14.1508 42.5833C14.1508 40.5121 15.8549 38.8333 17.9573 38.8333C20.0596 38.8333 21.7637 40.5121 21.7637 42.5833Z" stroke="black"/>
<path fill-rule="evenodd" clip-rule="evenodd" d="M43.5872 42.5833C43.5872 44.6545 41.8831 46.3333 39.7808 46.3333C37.6785 46.3333 35.9744 44.6545 35.9744 42.5833C35.9744 40.5121 37.6785 38.8333 39.7808 38.8333C41.8831 38.8333 43.5872 40.5121 43.5872 42.5833Z" stroke="black"/>
<path d="M9.41388 5.66663H49.4369C50.5274 5.66663 51.2129 6.82429 50.677 7.75929L42.7856 21.5236C42.0267 22.8476 40.6026 23.6666 39.0587 23.6666H18.7178" stroke="black"/>
</g>
<defs>
<clipPath id="clip0_3_43">
<rect width="53.2901" height="50" fill="white" transform="translate(0.447632)"/>
</clipPath>
</defs>
</svg>
