<svg width="778" height="600" viewBox="0 0 778 600" fill="none" xmlns="http://www.w3.org/2000/svg">
<g clip-path="url(#clip0_37_34)">
<path d="M462.932 200.335C459.747 218.207 441.198 233.926 441.198 233.926C441.198 233.926 425.991 212.181 429.176 194.309C432.373 176.433 442.503 163.293 451.828 164.962C461.149 166.619 466.117 182.462 462.932 200.335ZM422.091 231.381C434.524 244.604 436.057 268.865 436.057 268.865C436.057 268.865 409.542 268.098 397.105 254.863C384.669 241.628 380.183 225.656 387.091 219.173C393.986 212.693 409.657 218.158 422.091 231.381ZM436.949 322.947C437.509 326.049 437.73 328.222 437.788 328.774C437.792 328.838 437.805 328.886 437.799 328.913L437.802 328.925C437.802 328.925 437.79 328.928 437.787 328.916L437.7 328.927C437.412 328.914 436.553 328.886 435.255 328.808C428.309 328.359 408.89 326.195 398.594 315.651C385.914 302.661 381.135 286.755 387.908 280.153C394.678 273.539 410.45 278.707 423.13 291.696C428.806 297.517 432.346 305.575 434.507 312.725C435.525 316.08 436.34 319.494 436.949 322.947ZM475.794 264.178C459.997 273.121 436.06 268.877 436.06 268.877C436.06 268.877 443.1 243.287 458.897 234.345C474.694 225.402 491.276 224.83 495.947 233.062C500.62 241.307 491.591 255.236 475.794 264.178Z" fill="#FFCE9A"/>
<path d="M474.021 320.015C459.245 330.554 435 328.819 435 328.819C435 328.819 439.339 302.637 454.115 292.097C468.891 281.558 485.332 279.255 490.831 286.969C496.33 294.682 488.809 309.472 474.021 320.015Z" fill="#FFCE9A"/>
<path d="M444.327 226.584C444.24 226.84 437.246 251.539 439.651 314.352C439.825 318.951 440.057 323.766 440.341 328.774L440.036 328.791L437.798 328.913L437.795 328.901L437.783 328.904L437.695 328.915C437.408 328.902 436.549 328.874 435.25 328.796C434.943 323.438 434.693 318.077 434.502 312.713C432.228 250.29 439.138 226.194 439.444 225.118L444.327 226.584ZM562.198 286.661C557.179 299.611 563.06 317.259 563.06 317.259C563.06 317.259 581.643 309.085 586.662 296.134C591.675 283.177 590.273 270.561 583.513 267.947C576.761 265.326 567.217 273.71 562.198 286.661ZM576.564 323.187C563.181 326.892 552.539 342.144 552.539 342.144C552.539 342.144 570.178 352.179 583.568 348.467C596.958 344.756 606.238 336.096 604.298 329.113C602.364 322.136 589.947 319.483 576.564 323.187ZM530.466 377.148C528.867 378.954 527.859 380.287 527.602 380.625C527.574 380.665 527.547 380.691 527.54 380.711L527.533 380.718C527.533 380.718 527.539 380.724 527.546 380.718L527.599 380.76C527.792 380.865 528.365 381.188 529.245 381.653C533.964 384.12 547.52 390.421 558.441 387.618C571.893 384.165 581.337 375.664 579.532 368.656C577.735 361.642 565.37 358.754 551.918 362.207C545.895 363.758 540.379 367.619 536.125 371.435C534.126 373.224 532.236 375.132 530.466 377.148ZM528.421 323.29C535.196 335.414 552.532 342.15 552.532 342.15C552.532 342.15 558.098 322.623 551.323 310.499C544.548 298.376 533.934 291.413 527.61 294.939C521.278 298.472 521.647 311.167 528.421 323.29Z" fill="#59704D"/>
<path d="M507.394 360.5C512.866 373.262 529.408 381.761 529.408 381.761C529.408 381.761 536.974 362.92 531.502 350.158C526.029 337.396 516.195 329.358 509.535 332.216C502.875 335.074 501.915 347.731 507.394 360.5Z" fill="#E1E4E5"/>
<path d="M563.932 311.215C563.887 311.416 558.645 330.344 532.114 370.455C530.082 373.526 528.021 376.577 525.932 379.609L526.125 379.742L527.54 380.711L527.547 380.704L527.553 380.711L527.606 380.753C527.799 380.858 528.372 381.182 529.252 381.647C531.582 378.266 533.876 374.86 536.132 371.429C562.422 331.522 567.479 313.021 567.707 312.197L563.932 311.215Z" fill="#E1E4E5"/>
<path d="M354.286 258.966C354.286 258.966 346.055 229.504 357.733 215.926C370.275 201.319 380.082 215.345 370.373 235.776C363.715 249.802 354.286 258.966 354.286 258.966ZM349.897 291.837C349.897 291.837 322.967 277.252 321.395 259.465C319.693 240.355 336.634 243.09 344.528 264.237C349.917 278.737 349.897 291.837 349.897 291.837ZM350.278 311.285C350.278 311.285 379.02 300.437 383.107 283.042C387.508 264.335 370.325 264.785 359.524 284.663C352.132 298.296 350.278 311.285 350.278 311.285ZM351.952 325.32C351.952 325.32 321.319 323.393 312.397 307.954C302.8 291.343 319.366 286.738 335.433 302.577C346.443 313.419 351.952 325.32 351.952 325.32Z" fill="#A79B82"/>
<path d="M359.909 232.514C354.267 251.165 350.076 270.299 348.965 289.764C347.877 308.926 349.859 328.091 353.954 346.802C355.028 351.71 356.23 356.59 357.558 361.435L359.4 360.44C355.93 347.563 353.201 334.472 351.788 321.191C349.81 302.729 350.577 284.094 353.833 265.818C355.81 254.757 358.605 243.856 361.855 233.105C362.236 231.839 360.282 231.274 359.909 232.514Z" fill="#59704D"/>
<mask id="mask0_37_34" style="mask-type:alpha" maskUnits="userSpaceOnUse" x="295" y="214" width="298" height="298">
<path d="M444.112 511.357C525.959 511.357 592.309 445.007 592.309 363.16C592.309 281.313 525.959 214.963 444.112 214.963C362.265 214.963 295.915 281.313 295.915 363.16C295.915 445.007 362.265 511.357 444.112 511.357Z" fill="#C4C4C4"/>
</mask>
<g mask="url(#mask0_37_34)">
<path d="M473.334 621.983C555.181 621.983 621.531 555.633 621.531 473.786C621.531 391.939 555.181 325.589 473.334 325.589C391.487 325.589 325.137 391.939 325.137 473.786C325.137 555.633 391.487 621.983 473.334 621.983Z" fill="#B5D5A5"/>
<path d="M410.314 522.762C468.783 522.762 516.182 477.338 516.182 421.305C516.182 365.272 468.783 319.848 410.314 319.848C351.845 319.848 304.446 365.272 304.446 421.305C304.446 477.338 351.845 522.762 410.314 522.762Z" fill="#E1E4E5"/>
<path d="M426.37 653.293C508.217 653.293 574.567 586.943 574.567 505.096C574.567 423.249 508.217 356.899 426.37 356.899C344.523 356.899 278.173 423.249 278.173 505.096C278.173 586.943 344.523 653.293 426.37 653.293Z" fill="#59704D"/>
</g>
<path d="M279.035 322.996C279.035 322.996 254.827 287.898 264.062 264.707C273.969 239.769 293.255 253.807 289.722 285.138C287.307 306.642 279.035 322.996 279.035 322.996ZM288.154 368.309C288.154 368.309 246.048 361.298 235.91 338.567C225.003 314.152 248.571 310.075 268.563 334.367C282.241 351.034 288.154 368.309 288.154 368.309ZM297.476 393.768C297.476 393.768 330.438 366.439 327.938 341.66C325.255 315.009 302.813 323.392 297.591 354.489C294.03 375.808 297.476 393.768 297.476 393.768ZM306.045 411.507C306.045 411.507 264.799 422.857 246.039 406.555C225.858 389.013 245.604 375.432 273.962 389.023C293.389 398.32 306.045 411.507 306.045 411.507Z" fill="#FFCE9A"/>
<path d="M274.452 285.584C275.472 312.722 278.625 339.841 285.986 366C293.241 391.747 304.544 416.109 318.425 438.912C322.055 444.9 325.881 450.789 329.81 456.564L331.786 454.418C321.375 439.019 311.842 423.004 303.957 406.139C292.979 382.704 285.54 357.795 281.545 332.232C279.135 316.757 277.876 301.123 277.285 285.479C277.213 283.638 274.382 283.779 274.452 285.584Z" fill="#59704D"/>
<path d="M536.093 256.794C536.093 256.794 548.729 216.073 532.996 196.692C516.1 175.845 501.881 194.997 514.599 223.848C523.319 243.652 536.093 256.794 536.093 256.794ZM540.908 302.764C540.908 302.764 579.005 283.51 581.9 258.79C585.027 232.234 561.316 235.373 549.481 264.523C541.398 284.511 540.908 302.764 540.908 302.764ZM539.605 329.845C539.605 329.845 499.99 313.593 494.985 289.196C489.595 262.959 513.516 264.266 527.777 292.389C537.536 311.674 539.605 329.845 539.605 329.845ZM536.718 349.332C536.718 349.332 579.472 347.86 592.514 326.704C606.544 303.941 583.645 296.869 560.633 318.301C544.864 332.969 536.718 349.332 536.718 349.332Z" fill="#A79B82"/>
<path d="M529.307 219.717C536.429 245.925 541.51 272.749 542.288 299.913C543.044 326.652 539.523 353.276 533.077 379.182C531.398 385.98 529.504 392.742 527.477 399.427L524.95 397.968C530.294 380.164 534.614 362.034 537.109 343.586C540.596 317.942 540.266 291.949 536.453 266.357C534.136 250.868 530.674 235.571 526.571 220.462C526.091 218.684 528.836 217.974 529.307 219.717Z" fill="#59704D"/>
<path d="M352.951 167.623C343.904 169.416 333.598 159.886 333.598 159.886C333.598 159.886 337.968 147.454 347.018 145.669C356.065 143.876 366.367 153.398 366.367 153.398C366.367 153.398 361.998 165.83 352.951 167.623Z" fill="url(#paint0_linear_37_34)"/>
<path d="M648.328 453.468C659.14 460.915 675.658 455.709 675.658 455.709C675.658 455.709 674.635 438.431 663.816 430.991C653.003 423.544 636.493 428.742 636.493 428.742C636.493 428.742 637.516 446.021 648.328 453.468Z" fill="url(#paint1_linear_37_34)"/>
<path d="M658.24 248.807C646.997 260.25 625.974 257.837 625.974 257.837C625.974 257.837 623.192 236.872 634.445 225.436C645.688 213.994 666.701 216.399 666.701 216.399C666.701 216.399 669.483 237.364 658.24 248.807Z" fill="url(#paint2_linear_37_34)"/>
<path d="M290.466 476.063C282.942 476.063 276.842 482.163 276.842 489.687C276.842 497.211 282.942 503.311 290.466 503.311C297.99 503.311 304.09 497.211 304.09 489.687C304.09 482.163 297.99 476.063 290.466 476.063Z" fill="white"/>
<path d="M173.518 298.402C167.868 298.402 163.288 293.822 163.288 288.172C163.288 282.522 167.868 277.942 173.518 277.942C179.168 277.942 183.748 282.522 183.748 288.172C183.748 293.822 179.168 298.402 173.518 298.402Z" fill="#B5D5A5"/>
<path d="M604.36 156.373C601.315 156.373 598.846 153.904 598.846 150.859C598.846 147.814 601.315 145.345 604.36 145.345C607.405 145.345 609.874 147.814 609.874 150.859C609.874 153.904 607.405 156.373 604.36 156.373Z" fill="#B5D5A5"/>
<path d="M588.172 491.057C583.655 491.057 579.993 487.7 579.993 483.56C579.993 479.42 583.655 476.063 588.172 476.063C592.689 476.063 596.351 479.42 596.351 483.56C596.351 487.7 592.689 491.057 588.172 491.057Z" fill="#E1E4E5"/>
<path d="M173.9 449.256C167.88 449.256 163 444.376 163 438.356C163 432.336 167.88 427.456 173.9 427.456C179.92 427.456 184.8 432.336 184.8 438.356C184.8 444.376 179.92 449.256 173.9 449.256Z" fill="#E1E4E5"/>
<path d="M220.78 266.611C217.185 266.611 214.27 263.696 214.27 260.101C214.27 256.506 217.185 253.591 220.78 253.591C224.375 253.591 227.29 256.506 227.29 260.101C227.29 263.696 224.375 266.611 220.78 266.611Z" fill="#E1E4E5"/>
<path d="M513.931 102.336C510.277 102.336 507.314 99.1268 507.314 95.168C507.314 91.2092 510.277 88 513.931 88C517.585 88 520.548 91.2092 520.548 95.168C520.548 99.1268 517.585 102.336 513.931 102.336Z" fill="#E1E4E5"/>
<path d="M305.607 210.627C306.906 215.476 304.029 220.459 299.181 221.758C294.332 223.057 289.349 220.18 288.05 215.332C286.751 210.484 289.628 205.5 294.476 204.201C299.324 202.902 304.308 205.779 305.607 210.627Z" fill="#E1E4E5"/>
<path d="M233.822 156.373C228.95 156.373 225 152.423 225 147.551C225 142.679 228.95 138.729 233.822 138.729C238.694 138.729 242.644 142.679 242.644 147.551C242.644 152.423 238.694 156.373 233.822 156.373Z" fill="#E1E4E5"/>
<path d="M727.439 410.358C722.303 410.358 718.139 407.027 718.139 402.918C718.139 398.809 722.303 395.478 727.439 395.478C732.575 395.478 736.739 398.809 736.739 402.918C736.739 407.027 732.575 410.358 727.439 410.358Z" fill="#E1E4E5"/>
<path d="M681.544 325.488C684.247 335.577 678.26 345.948 668.17 348.651C658.081 351.355 647.71 345.367 645.007 335.278C642.303 325.188 648.291 314.818 658.38 312.114C668.47 309.411 678.84 315.398 681.544 325.488Z" fill="#E1E4E5"/>
<path d="M644.014 145.608H644.191C645.235 160.736 656.235 160.969 656.235 160.969C656.235 160.969 644.105 161.211 644.105 178.692C644.105 161.211 631.974 160.969 631.974 160.969C631.974 160.969 642.97 160.736 644.014 145.608ZM396.389 88H396.574C397.665 103.633 409.166 103.873 409.166 103.873C409.166 103.873 396.484 104.123 396.484 122.186C396.484 104.123 383.802 103.873 383.802 103.873C383.802 103.873 395.298 103.633 396.389 88Z" fill="#FFCE9A"/>
</g>
<defs>
<linearGradient id="paint0_linear_37_34" x1="318.679" y1="171.223" x2="396.759" y2="134.652" gradientUnits="userSpaceOnUse">
<stop stop-color="white"/>
<stop offset="1" stop-color="#EEEEEE"/>
</linearGradient>
<linearGradient id="paint1_linear_37_34" x1="690.445" y1="477.903" x2="605.335" y2="388.157" gradientUnits="userSpaceOnUse">
<stop stop-color="white"/>
<stop offset="1" stop-color="#EEEEEE"/>
</linearGradient>
<linearGradient id="paint2_linear_37_34" x1="613.384" y1="287.893" x2="694.662" y2="160.482" gradientUnits="userSpaceOnUse">
<stop stop-color="white"/>
<stop offset="1" stop-color="#EEEEEE"/>
</linearGradient>
<clipPath id="clip0_37_34">
<rect width="900" height="600" fill="white"/>
</clipPath>
</defs>
</svg>
