<?xml version="1.0" standalone="no"?>
<!DOCTYPE svg PUBLIC "-//W3C//DTD SVG 20010904//EN"
 "http://www.w3.org/TR/2001/REC-SVG-20010904/DTD/svg10.dtd">
<svg version="1.0" xmlns="http://www.w3.org/2000/svg"
 width="626.000000pt" height="626.000000pt" viewBox="0 0 626.000000 626.000000"
 preserveAspectRatio="xMidYMid meet">

<g transform="translate(0.000000,626.000000) scale(0.100000,-0.100000)"
fill="#000000" stroke="none">
<path d="M2870 6249 c-489 -54 -874 -170 -1245 -376 -682 -379 -1197 -989
-1450 -1715 -258 -742 -227 -1554 87 -2278 110 -255 265 -508 446 -729 110
-136 318 -343 450 -450 133 -107 316 -230 469 -315 443 -246 987 -386 1503
-386 426 0 876 96 1279 274 209 91 487 262 682 418 129 103 369 341 470 468
391 486 616 1039 684 1679 63 590 -76 1264 -371 1794 -341 614 -872 1098
-1504 1370 -390 168 -837 259 -1259 256 -91 -1 -200 -5 -241 -10z m563 -425
c1074 -117 1986 -880 2296 -1919 150 -501 148 -1064 -4 -1564 -241 -788 -848
-1445 -1605 -1735 -650 -250 -1339 -250 -1981 0 -929 360 -1595 1229 -1703
2221 -100 904 251 1786 944 2374 404 342 915 564 1435 623 167 19 447 19 618
0z"/>
<path d="M1398 3326 c-59 -21 -85 -42 -114 -91 -58 -99 -23 -229 76 -285 l45
-25 1725 0 1725 0 45 25 c138 78 138 282 0 360 l-45 25 -1710 2 c-1409 2
-1717 0 -1747 -11z"/>
</g>
</svg>
